<svg xmlns="http://www.w3.org/2000/svg" width="37.481" height="38.054" viewBox="0 0 37.481 38.054"><path d="M121.33,61.533a17.16,17.16,0,0,1-3.831-7.921l-1.183-6.119a11.659,11.659,0,0,0-9.471-9.259l-.144-.748a4.113,4.113,0,1,0-8.076,1.561l.145.75a11.66,11.66,0,0,0-5.333,12.119l1,5.157A17.053,17.053,0,0,1,93.19,67.462l-.076.166a.685.685,0,0,0,.623.97.678.678,0,0,0,.13-.012L104.633,66.5a3.426,3.426,0,1,0,6.728-1.3l10.1-1.951a.685.685,0,0,0,.389-1.12Zm-12.942,6.34a2.062,2.062,0,0,1-2.409-1.629l4.038-.78A2.061,2.061,0,0,1,108.389,67.874ZM99.972,38.787a2.743,2.743,0,1,1,5.385-1.043l.065.334a11.239,11.239,0,0,0-5.385,1.042Zm10.457,25.2-5.383,1.04L94.871,66.995a18.4,18.4,0,0,0,.906-10.182l-1-5.157a10.3,10.3,0,0,1,8.146-12.046,10.46,10.46,0,0,1,1.972-.189,10.287,10.287,0,0,1,10.075,8.332l1.183,6.119a18.541,18.541,0,0,0,3.888,8.258Zm0,0" transform="translate(-85.086 -31.227)" fill="#ea4e4e"/><path d="M327.748,40.2a6.853,6.853,0,0,0-6.721-8.2c-.116,0-.23.008-.343.015l-.083.005.086,1.371.091-.005c.083-.006.166-.012.25-.012a5.482,5.482,0,0,1,5.376,6.558Zm0,0" transform="translate(-293.141 -29.259)" fill="#ea4e4e"/><path d="M319.191,0c-.158,0-.313.01-.469.02l-.129.009.085,1.371.137-.01c.124-.007.248-.017.374-.017a8.224,8.224,0,0,1,8.065,9.835l1.345.267a9.706,9.706,0,0,0,.186-1.881,9.605,9.605,0,0,0-9.6-9.6Zm0,0" transform="translate(-291.305)" fill="#ea4e4e"/><path d="M326.847,68.918A4.1,4.1,0,0,0,322.816,64a1.959,1.959,0,0,0-.258.023l.09,1.371c.047,0,.092-.008.168-.02a2.734,2.734,0,0,1,2.687,3.279Zm0,0" transform="translate(-294.93 -58.517)" fill="#ea4e4e"/><path d="M37.209,68.263c.081-.027.162-.047.244-.069l.083-.021-.35-1.326-.077.021c-.113.029-.226.059-.337.1a6.862,6.862,0,0,0-4.323,8.675A6.941,6.941,0,0,0,33,76.872l1.19-.679a5.582,5.582,0,0,1-.443-.987,5.49,5.49,0,0,1,3.46-6.943Zm0,0" transform="translate(-29.352 -61.121)" fill="#ea4e4e"/><path d="M2.3,41.553a8.169,8.169,0,0,1,4.75-4.13c.124-.042.249-.074.373-.105l.12-.031-.352-1.326-.114.03c-.155.04-.31.081-.463.132A9.6,9.6,0,0,0,.561,48.268a9.7,9.7,0,0,0,.774,1.725l1.19-.68a8.323,8.323,0,0,1-.665-1.48A8.175,8.175,0,0,1,2.3,41.553Zm0,0" transform="translate(-0.062 -32.88)" fill="#ea4e4e"/><path d="M67.376,99.285c.047-.009.094-.018.141-.031l-.393-1.316a1.588,1.588,0,0,0-.212.052,4.108,4.108,0,0,0-2.262,5.944l1.188-.679a2.73,2.73,0,0,1,1.537-3.97Zm0,0" transform="translate(-58.619 -89.547)" fill="#ea4e4e"/><path d="M146.361,318.4l-1.344.269.2,1a5.242,5.242,0,0,1-.784,3.964l1.14.761a6.6,6.6,0,0,0,.988-4.993Zm0,0" transform="translate(-132.066 -291.121)" fill="#ea4e4e"/></svg>