<svg xmlns="http://www.w3.org/2000/svg" width="30.001" height="30.001" viewBox="0 0 30.001 30.001"><path d="M27.5,2.813H23.438V.938a.938.938,0,0,0-1.875,0V2.813H15.938V.938a.938.938,0,0,0-1.875,0V2.813H8.438V.938a.938.938,0,0,0-1.875,0V2.813H2.5A2.5,2.5,0,0,0,0,5.312V27.5A2.5,2.5,0,0,0,2.5,30h25A2.5,2.5,0,0,0,30,27.5V5.312A2.5,2.5,0,0,0,27.5,2.813ZM28.126,27.5a.626.626,0,0,1-.624.625H2.5a.626.626,0,0,1-.625-.625V5.312A.626.626,0,0,1,2.5,4.688H6.563V6.563a.938.938,0,0,0,1.875,0V4.688h5.625V6.563a.938.938,0,1,0,1.875,0V4.688h5.625V6.563a.938.938,0,0,0,1.875,0V4.688H27.5a.625.625,0,0,1,.624.624Z" fill="#fff"/><rect width="3.801" height="2.851" transform="translate(6.55 11.234)" fill="#fff"/><rect width="3.801" height="2.851" transform="translate(6.55 15.915)" fill="#fff"/><rect width="3.801" height="2.851" transform="translate(6.55 20.596)" fill="#fff"/><rect width="3.801" height="2.851" transform="translate(13.1 20.596)" fill="#fff"/><rect width="3.801" height="2.851" transform="translate(13.1 15.915)" fill="#fff"/><rect width="3.801" height="2.851" transform="translate(13.1 11.234)" fill="#fff"/><rect width="3.801" height="2.851" transform="translate(19.65 20.596)" fill="#fff"/><rect width="3.801" height="2.851" transform="translate(19.65 15.915)" fill="#fff"/><rect width="3.801" height="2.851" transform="translate(19.65 11.234)" fill="#fff"/></svg>