<svg xmlns="http://www.w3.org/2000/svg" width="21" height="21" viewBox="0 0 21 21"><path d="M18.539,1.641h-.984V0H15.914V1.641H5.086V0H3.445V1.641H2.461A2.464,2.464,0,0,0,0,4.1V18.539A2.464,2.464,0,0,0,2.461,21H18.539A2.464,2.464,0,0,0,21,18.539V4.1A2.464,2.464,0,0,0,18.539,1.641Zm.82,16.9a.821.821,0,0,1-.82.82H2.461a.821.821,0,0,1-.82-.82V7.711H19.359Zm0-12.469H1.641V4.1a.821.821,0,0,1,.82-.82h.984V4.922H5.086V3.281H15.914V4.922h1.641V3.281h.984a.821.821,0,0,1,.82.82Z" fill="#ea4e4e"/><g transform="translate(3.117 9.434)"><rect width="1.641" height="1.641" fill="#ea4e4e"/></g><g transform="translate(6.398 9.434)"><rect width="1.641" height="1.641" fill="#ea4e4e"/></g><g transform="translate(9.68 9.434)"><rect width="1.641" height="1.641" fill="#ea4e4e"/></g><g transform="translate(12.961 9.434)"><rect width="1.641" height="1.641" fill="#ea4e4e"/></g><g transform="translate(16.242 9.434)"><rect width="1.641" height="1.641" fill="#ea4e4e"/></g><g transform="translate(3.117 12.715)"><rect width="1.641" height="1.641" fill="#ea4e4e"/></g><g transform="translate(6.398 12.715)"><rect width="1.641" height="1.641" fill="#ea4e4e"/></g><g transform="translate(9.68 12.715)"><rect width="1.641" height="1.641" fill="#ea4e4e"/></g><g transform="translate(12.961 12.715)"><rect width="1.641" height="1.641" fill="#ea4e4e"/></g><g transform="translate(3.117 15.996)"><rect width="1.641" height="1.641" fill="#ea4e4e"/></g><g transform="translate(6.398 15.996)"><rect width="1.641" height="1.641" fill="#ea4e4e"/></g><g transform="translate(9.68 15.996)"><rect width="1.641" height="1.641" fill="#ea4e4e"/></g><g transform="translate(12.961 15.996)"><rect width="1.641" height="1.641" fill="#ea4e4e"/></g><g transform="translate(16.242 12.715)"><rect width="1.641" height="1.641" fill="#ea4e4e"/></g></svg>