<svg xmlns="http://www.w3.org/2000/svg" width="36" height="36" viewBox="0 0 36 36"><g transform="translate(0 0)"><path d="M131.056,109.224h1.056v1.056a1.056,1.056,0,0,0,2.112,0v-1.056h1.056a1.056,1.056,0,0,0,0-2.112h-1.056v-1.056a1.056,1.056,0,0,0-2.112,0v1.056h-1.056a1.056,1.056,0,1,0,0,2.112Zm0,0" transform="translate(-120.862 -97.619)" fill="#fff"/><path d="M33.187,24.757V23.59a6.012,6.012,0,1,0-12.023,0v6.4a3.9,3.9,0,0,1-7.8,0V21.743A10.209,10.209,0,0,0,22.5,11.6V6.147a3.164,3.164,0,1,0-2.109,0V11.6a8.086,8.086,0,1,1-16.172,0V6.147a3.164,3.164,0,1,0-2.109,0V11.6A10.209,10.209,0,0,0,11.25,21.743v8.246a6.012,6.012,0,1,0,12.023,0v-6.4a3.9,3.9,0,0,1,7.8,0v1.167a3.867,3.867,0,1,0,2.109,0ZM21.445,2.11a1.055,1.055,0,1,1-1.055,1.055A1.056,1.056,0,0,1,21.445,2.11Zm-18.281,0A1.055,1.055,0,1,1,2.109,3.164,1.056,1.056,0,0,1,3.164,2.11ZM32.133,30.235a1.758,1.758,0,1,1,1.758-1.758A1.76,1.76,0,0,1,32.133,30.235Zm0,0" transform="translate(0 0)" fill="#fff"/></g></svg>