<svg xmlns="http://www.w3.org/2000/svg" width="35.924" height="35.924" viewBox="0 0 35.924 35.924"><g transform="translate(-0.001 0)"><g transform="translate(0.6 24.548)"><path d="M13.391,328H8.6a.6.6,0,0,0-.6.6H8v10.178a.6.6,0,0,0,.6.6h4.79a.6.6,0,0,0,.6-.6h0V328.6A.6.6,0,0,0,13.391,328Zm-.6,10.178H9.2V329.2h3.592Z" transform="translate(-8.002 -328.002)" fill="#fff"/></g><g transform="translate(22.154 19.758)"><path d="M301.391,264H296.6a.6.6,0,0,0-.6.6h0v14.968a.6.6,0,0,0,.6.6h4.79a.6.6,0,0,0,.6-.6h0V264.6A.6.6,0,0,0,301.391,264Zm-.6,14.968H297.2V265.2h3.592Z" transform="translate(-296.002 -264.002)" fill="#fff"/></g><g transform="translate(14.969 22.752)"><path d="M205.391,304H200.6a.6.6,0,0,0-.6.6h0v11.975a.6.6,0,0,0,.6.6h4.79a.6.6,0,0,0,.6-.6h0V304.6A.6.6,0,0,0,205.391,304Zm-.6,11.975H201.2V305.2h3.592Z" transform="translate(-200.002 -304.002)" fill="#fff"/></g><g transform="translate(7.785 15.567)"><path d="M109.391,208H104.6a.6.6,0,0,0-.6.6h0v19.16a.6.6,0,0,0,.6.6h4.79a.6.6,0,0,0,.6-.6h0V208.6A.6.6,0,0,0,109.391,208Zm-.6,19.16H105.2V209.2h3.592Z" transform="translate(-104.002 -208.002)" fill="#fff"/></g><g transform="translate(29.339 27.542)"><path d="M397.391,368H392.6a.6.6,0,0,0-.6.6h0v7.185a.6.6,0,0,0,.6.6h4.79a.6.6,0,0,0,.6-.6h0V368.6A.6.6,0,0,0,397.391,368Zm-.6,7.185H393.2V369.2h3.592Z" transform="translate(-392.002 -368.002)" fill="#fff"/></g><g transform="translate(0.001 0)"><g transform="translate(0 0)"><path d="M35.781,13.125a.6.6,0,0,0-.131-.114l-2.395-1.539a.6.6,0,0,0-.922.5v1.2H30.258L25.646,6.254a.621.621,0,0,0-1,0l-6.572,9.858L11.328.363A.59.59,0,0,0,10.769,0a.6.6,0,0,0-.548.379L2.587,19.758H0v1.2H2.995a.6.6,0,0,0,.557-.379l7.25-18.4L17.413,17.6a.6.6,0,0,0,1.048.1l6.687-10.03L29.44,14.1a.6.6,0,0,0,.5.267h2.395v1.2a.6.6,0,0,0,.988.454l2.395-2.053A.6.6,0,0,0,35.781,13.125ZM33.53,14.265V13.072l.8.512Z" transform="translate(-0.001 0)" fill="#fff"/></g></g></g></svg>