<svg xmlns="http://www.w3.org/2000/svg" width="36.915" height="32.621" viewBox="0 0 36.915 32.621"><g transform="translate(-3.734 -62.194)"><g transform="translate(3.734 62.194)"><g transform="translate(0 0)"><path d="M75.048,65.221a10.332,10.332,0,0,0-14.613,0l-.82.82-.82-.82A10.333,10.333,0,0,0,44.182,79.833L58.845,94.5a1.089,1.089,0,0,0,1.54,0L75.048,79.833a10.332,10.332,0,0,0,0-14.613Zm-1.54,13.073L59.615,92.187,45.721,78.294A8.156,8.156,0,0,1,57.255,66.76l1.59,1.59a1.088,1.088,0,0,0,1.539,0l1.59-1.59A8.156,8.156,0,0,1,73.509,78.294Z" transform="translate(-41.16 -62.194)" fill="#fff"/></g></g><g transform="translate(4.717 70.176)"><g transform="translate(0 0)"><path d="M86.466,156H76.048l-1.621-3.566a.726.726,0,0,0-1.344.057l-3.314,9.338-4.028-11.156a.726.726,0,0,0-.648-.478.706.706,0,0,0-.691.416l-2.707,5.752H52.722a.726.726,0,0,0-.726.726c0,.4.478.69.878.69h9.434c.281,0,.384-.127.5-.381l2.158-4.585,4.123,11.417a.726.726,0,0,0,.683.479h0a.725.725,0,0,0,.682-.483l3.39-9.555,1.071,2.355a.943.943,0,0,0,.814.39H86.619c.4,0,.573-.29.573-.691A.726.726,0,0,0,86.466,156Z" transform="translate(-51.996 -150.192)" fill="#fff"/></g></g></g></svg>