<svg xmlns="http://www.w3.org/2000/svg" width="28.652" height="22.931" viewBox="0 0 28.652 22.931"><g transform="translate(0.5 -5.5)"><path d="M26.045,10H1.607A1.609,1.609,0,0,0,0,11.607V28.417a1.609,1.609,0,0,0,1.607,1.607H26.045a1.609,1.609,0,0,0,1.607-1.607V11.607A1.609,1.609,0,0,0,26.045,10ZM26.7,28.417a.654.654,0,0,1-.653.653H1.607a.654.654,0,0,1-.653-.653V11.607a.654.654,0,0,1,.653-.653H26.045a.654.654,0,0,1,.653.653V28.417Z" transform="translate(0 -2.093)" fill="#c3c5c8" stroke="#c3c5c8" stroke-width="1"/><path d="M21.1,14a8.1,8.1,0,1,0,8.1,8.1A8.114,8.114,0,0,0,21.1,14Zm0,15.256A7.151,7.151,0,1,1,28.256,22.1,7.16,7.16,0,0,1,21.1,29.256Z" transform="translate(-6.802 -4.186)" fill="#c3c5c8" stroke="#c3c5c8" stroke-width="1"/><path d="M19.477,6.954h9.058a.477.477,0,0,0,0-.954H19.477a.477.477,0,1,0,0,.954Z" transform="translate(-9.942 0)" fill="#c3c5c8" stroke="#c3c5c8" stroke-width="1"/></g></svg>