<svg xmlns="http://www.w3.org/2000/svg" width="32.748" height="33.249" viewBox="0 0 32.748 33.249"><path d="M117.759,58.076a14.993,14.993,0,0,1-3.348-6.921l-1.033-5.346a10.187,10.187,0,0,0-8.275-8.09l-.126-.654a3.593,3.593,0,1,0-7.056,1.364l.126.655a10.188,10.188,0,0,0-4.66,10.589l.871,4.505a14.9,14.9,0,0,1-1.087,9.078l-.066.145a.6.6,0,0,0,.544.848.593.593,0,0,0,.114-.011l9.407-1.818a2.993,2.993,0,1,0,5.878-1.136l8.821-1.7a.6.6,0,0,0,.34-.978Zm-11.308,5.54a1.8,1.8,0,0,1-2.1-1.424l3.528-.682A1.8,1.8,0,0,1,106.452,63.615ZM99.1,38.2a2.4,2.4,0,1,1,4.705-.911l.056.292a9.82,9.82,0,0,0-4.705.91Zm9.137,22.018-4.7.909-8.889,1.719a16.074,16.074,0,0,0,.792-8.9l-.871-4.505a9,9,0,0,1,7.117-10.525,9.139,9.139,0,0,1,1.723-.165,8.988,8.988,0,0,1,8.8,7.28l1.033,5.346a16.2,16.2,0,0,0,3.4,7.216Zm0,0" transform="translate(-86.091 -31.597)" fill="#fff"/><path d="M326.846,39.161A5.988,5.988,0,0,0,320.973,32c-.1,0-.2.007-.3.013l-.072,0,.075,1.2.079,0c.073-.005.145-.011.218-.011a4.79,4.79,0,0,1,4.7,5.73Zm0,0" transform="translate(-296.609 -29.605)" fill="#fff"/><path d="M319.115,0c-.138,0-.274.009-.409.018l-.113.008.074,1.2.12-.008c.109-.006.217-.015.327-.015a7.186,7.186,0,0,1,7.047,8.593l1.175.234a8.479,8.479,0,0,0,.163-1.643A8.392,8.392,0,0,0,319.115,0Zm0,0" transform="translate(-294.751)" fill="#fff"/><path d="M326.305,68.3a3.586,3.586,0,0,0-3.522-4.3,1.712,1.712,0,0,0-.225.02l.079,1.2c.041,0,.081-.007.146-.018a2.389,2.389,0,0,1,2.348,2.865Zm0,0" transform="translate(-298.419 -59.209)" fill="#fff"/><path d="M36.564,68.084c.07-.023.142-.041.213-.06l.073-.018-.306-1.158-.067.018c-.1.026-.2.051-.294.084a6,6,0,0,0-3.777,7.579,6.064,6.064,0,0,0,.483,1.078l1.04-.593a4.877,4.877,0,0,1-.387-.863,4.8,4.8,0,0,1,3.023-6.067Zm0,0" transform="translate(-29.698 -61.844)" fill="#fff"/><path d="M2.017,40.847a7.138,7.138,0,0,1,4.15-3.608c.108-.037.217-.065.326-.092l.105-.027L6.29,35.961l-.1.026c-.135.035-.271.071-.4.115A8.384,8.384,0,0,0,.5,46.714a8.476,8.476,0,0,0,.676,1.507l1.04-.594a7.272,7.272,0,0,1-.581-1.294,7.143,7.143,0,0,1,.383-5.486Zm0,0" transform="translate(-0.062 -33.269)" fill="#fff"/><path d="M66.963,99.115c.041-.008.082-.015.123-.027l-.343-1.15a1.389,1.389,0,0,0-.185.045,3.59,3.59,0,0,0-1.976,5.193l1.038-.593a2.386,2.386,0,0,1,1.343-3.468Zm0,0" transform="translate(-59.311 -90.607)" fill="#fff"/><path d="M146.118,318.4l-1.174.235.175.878a4.58,4.58,0,0,1-.685,3.463l1,.665a5.771,5.771,0,0,0,.863-4.363Zm0,0" transform="translate(-133.627 -294.565)" fill="#fff"/></svg>