<svg xmlns="http://www.w3.org/2000/svg" width="11" height="10.794" viewBox="0 0 11 10.794"><g transform="translate(-5.6 -6.9)"><g transform="translate(5.6 6.9)"><path d="M16.3,114.3H6.083a.385.385,0,0,0-.383.383.391.391,0,0,0,.383.383H16.308a.385.385,0,0,0,.383-.383A.393.393,0,0,0,16.3,114.3Z" transform="translate(-5.691 -104.271)" fill="#483df6"/><path d="M5.609,13.539,5.6,15.36a.4.4,0,0,0,.112.28.374.374,0,0,0,.271.112l1.812-.009a.374.374,0,0,0,.271-.112l6.256-6.256a.4.4,0,0,0,0-.551L12.529,7.012a.4.4,0,0,0-.551,0L10.726,8.273l-5.005,5A.416.416,0,0,0,5.609,13.539Zm6.649-5.705,1.261,1.261-.71.71L11.548,8.543l.71-.71ZM6.384,13.707,11,9.094l1.261,1.261-4.613,4.6-1.27.009Z" transform="translate(-5.6 -6.9)" fill="#483df6"/></g></g></svg>