<svg xmlns="http://www.w3.org/2000/svg" width="19.846" height="24.941" viewBox="0 0 19.846 24.941"><g transform="translate(8.868 2.27)"><path d="M9.3-.873H7.517a.358.358,0,0,0-.358.358.358.358,0,0,0,.358.358h.221v19.77H-5.627V-.157h1.49V.656A1.132,1.132,0,0,0-3.007,1.787h1.693A2.006,2.006,0,0,0,.657,3.432h.8A2.006,2.006,0,0,0,3.425,1.787H5.118A1.132,1.132,0,0,0,6.248.656V-.889A1.132,1.132,0,0,0,5.118-2.019H-3.007A1.132,1.132,0,0,0-4.137-.889v.016H-7.19A1.43,1.43,0,0,0-8.618.555V14.927a.358.358,0,0,0,.358.358.358.358,0,0,0,.358-.358V.555A.713.713,0,0,1-7.19-.157h.846V19.97a.358.358,0,0,0,.358.358H8.1a.358.358,0,0,0,.358-.358V-.157H9.3a.713.713,0,0,1,.712.712V20.994a.713.713,0,0,1-.712.712H-7.19a.713.713,0,0,1-.712-.712V16.615a.358.358,0,0,0-.358-.358.358.358,0,0,0-.358.358v4.379A1.43,1.43,0,0,0-7.19,22.422H9.3a1.429,1.429,0,0,0,1.428-1.428V.555A1.429,1.429,0,0,0,9.3-.873ZM-3.421-.889A.415.415,0,0,1-3.007-1.3H5.118a.415.415,0,0,1,.415.415V.656a.415.415,0,0,1-.415.415H3.1a.358.358,0,0,0-.358.358A1.288,1.288,0,0,1,1.454,2.716h-.8A1.288,1.288,0,0,1-.63,1.429a.358.358,0,0,0-.358-.358H-3.007A.415.415,0,0,1-3.421.656Zm0,0" fill="#483df6" stroke="#483df6" stroke-width="0.5"/><path d="M195.089,257.175H193.2l-1.21-3.3a.358.358,0,0,0-.683.035l-1.3,5.117-1.255-3.65a.358.358,0,0,0-.651-.059l-1.044,1.861h-1.086a.358.358,0,0,0,0,.716h1.3a.358.358,0,0,0,.312-.183l.755-1.347,1.385,4.029a.358.358,0,0,0,.686-.028l1.31-5.158.9,2.452a.358.358,0,0,0,.336.235h2.143a.358.358,0,0,0,0-.716Zm0,0" transform="translate(-189.473 -249.398)" fill="#483df6" stroke="#483df6" stroke-width="0.5"/><path d="M195.088,639.355h-9.121a.358.358,0,0,0,0,.716h9.121a.358.358,0,0,0,0-.716Zm0,0" transform="translate(-189.472 -625.674)" fill="#483df6" stroke="#483df6" stroke-width="0.5"/><path d="M195.088,768.207h-9.121a.358.358,0,0,0,0,.716h9.121a.358.358,0,0,0,0-.716Zm0,0" transform="translate(-189.472 -751.372)" fill="#483df6" stroke="#483df6" stroke-width="0.5"/></g></svg>