<svg xmlns="http://www.w3.org/2000/svg" width="22.888" height="22.888" viewBox="0 0 22.888 22.888"><g transform="translate(0.25 0.25)"><path d="M11.194,0A11.194,11.194,0,1,0,22.388,11.194,11.206,11.206,0,0,0,11.194,0Zm0,21.527A10.333,10.333,0,1,1,21.527,11.194,10.345,10.345,0,0,1,11.194,21.527Z" fill="#fff" stroke="#fff" stroke-width="0.5"/><path d="M25.431,37a.43.43,0,0,0-.431.431v.861a.431.431,0,1,0,.861,0v-.861A.43.43,0,0,0,25.431,37Z" transform="translate(-14.236 -21.07)" fill="#fff" stroke="#fff" stroke-width="0.5"/><path d="M21.493,9h-.05A3.445,3.445,0,0,0,18,12.444a.431.431,0,1,0,.861,0,2.583,2.583,0,0,1,2.62-2.583,2.632,2.632,0,0,1,2.546,2.546,2.571,2.571,0,0,1-1.184,2.21,4.107,4.107,0,0,0-1.829,3.493v1.224a.431.431,0,1,0,.861,0V18.109a3.293,3.293,0,0,1,1.435-2.769A3.427,3.427,0,0,0,24.888,12.4,3.468,3.468,0,0,0,21.493,9Z" transform="translate(-10.25 -5.125)" fill="#fff" stroke="#fff" stroke-width="0.5"/></g></svg>