<svg xmlns="http://www.w3.org/2000/svg" width="26.306" height="23.449" viewBox="0 0 26.306 23.449"><g transform="translate(0)"><g transform="translate(0)"><path d="M26.025,37.059,13.556,27.93a.683.683,0,0,0-.807,0L.279,37.059a.684.684,0,1,0,.808,1.1l12.066-8.834,12.066,8.834a.683.683,0,0,0,.808-1.1Z" transform="translate(0.001 -27.798)" fill="#483df6"/></g></g><g transform="translate(2.9 10.519)"><g transform="translate(0 0)"><path d="M76.273,232.543a.684.684,0,0,0-.684.683v10.879H70.122v-5.939a3.418,3.418,0,1,0-6.835,0v5.939H57.819V233.227a.683.683,0,0,0-1.367,0v11.563a.684.684,0,0,0,.683.684H63.97a.683.683,0,0,0,.681-.63.517.517,0,0,0,0-.053v-6.622a2.051,2.051,0,1,1,4.1,0v6.622a.5.5,0,0,0,0,.053.683.683,0,0,0,.681.631h6.835a.683.683,0,0,0,.683-.684V233.227A.684.684,0,0,0,76.273,232.543Z" transform="translate(-56.452 -232.543)" fill="#483df6"/></g></g></svg>