<svg xmlns="http://www.w3.org/2000/svg" width="16.5" height="16.5" viewBox="0 0 16.5 16.5"><path d="M8.25,0A8.25,8.25,0,1,0,16.5,8.25,8.259,8.259,0,0,0,8.25,0Zm0,15.485A7.235,7.235,0,1,1,15.485,8.25,7.243,7.243,0,0,1,8.25,15.485Z" fill="#fa5457"/><circle cx="0.849" cy="0.849" r="0.849" transform="translate(7.532 4.111)" fill="#fa5457"/><path d="M30.645,28.342a.508.508,0,0,0-.508.508v4.315a.508.508,0,1,0,1.015,0V28.85A.508.508,0,0,0,30.645,28.342Z" transform="translate(-22.487 -21.147)" fill="#fa5457"/></svg>