<svg xmlns="http://www.w3.org/2000/svg" width="15.411" height="11.601" viewBox="0 0 15.411 11.601"><g transform="translate(0 -7.434)"><path d="M24.994,47.431H14.689a.769.769,0,1,1,0-1.538H24.994a.769.769,0,0,1,0,1.538Z" transform="translate(-10.352 -28.601)"/><path d="M24.994,28.6H14.689a.769.769,0,1,1,0-1.538H24.994a.769.769,0,0,1,0,1.538Z" transform="translate(-10.352 -14.597)"/><path d="M24.994,9.769H14.689a.769.769,0,1,1,0-1.538H24.994a.769.769,0,0,1,0,1.538Z" transform="translate(-10.352 -0.593)"/><circle cx="1.033" cy="1.033" r="1.033" transform="translate(0 7.434)"/><circle cx="1.033" cy="1.033" r="1.033" transform="translate(0 12.201)"/><circle cx="1.033" cy="1.033" r="1.033" transform="translate(0 16.969)"/></g></svg>