<svg xmlns="http://www.w3.org/2000/svg" xmlns:xlink="http://www.w3.org/1999/xlink" width="102.83" height="97.896" viewBox="0 0 102.83 97.896"><defs><linearGradient id="a" x1="0.509" y1="0.997" x2="0.509" y2="-0.003" gradientUnits="objectBoundingBox"><stop offset="0" stop-color="gray" stop-opacity="0.251"/><stop offset="0.54" stop-color="gray" stop-opacity="0.122"/><stop offset="1" stop-color="gray" stop-opacity="0.102"/></linearGradient><linearGradient id="b" x1="0.813" y1="0.841" x2="0.813" y2="-0.159" xlink:href="#a"/><linearGradient id="c" x1="1.78" y1="0.849" x2="1.78" y2="-0.151" xlink:href="#a"/><linearGradient id="d" x1="0.5" y1="1" x2="0.5" y2="0" xlink:href="#a"/><linearGradient id="f" x1="0.5" y1="0.999" x2="0.5" y2="-0.001" xlink:href="#a"/></defs><g transform="translate(0 0)"><rect width="54.792" height="75.705" transform="matrix(0.978, -0.21, 0.21, 0.978, 8.666, 16.987)" fill="#e0e0e0"/><g transform="translate(9.841 6.938)" opacity="0.5"><rect width="52.94" height="73.146" transform="matrix(0.978, -0.21, 0.21, 0.978, 0, 11.106)" fill="url(#a)"/></g><rect width="51.592" height="71.53" transform="matrix(0.978, -0.21, 0.21, 0.978, 10.612, 18.43)" fill="#fafafa"/><rect width="25.594" height="6.2" transform="matrix(0.978, -0.21, 0.21, 0.978, 22.737, 12.656)" fill="url(#b)"/><path d="M441.3,91.351a3.664,3.664,0,1,0,4.263,2.831A3.621,3.621,0,0,0,441.3,91.351Zm1.212,5.654a2.114,2.114,0,1,1,1.575-2.508,2.089,2.089,0,0,1-1.575,2.508Z" transform="translate(-407.323 -87.3)" fill="url(#c)"/><rect width="25.055" height="5.927" transform="matrix(0.978, -0.21, 0.21, 0.978, 22.945, 12.34)" fill="#0e9bff"/><path d="M441.623,91.351a3.5,3.5,0,1,0,4.159,2.689A3.5,3.5,0,0,0,441.623,91.351Zm1.158,5.4a2.021,2.021,0,1,1,1.552-2.4,2.021,2.021,0,0,1-1.552,2.4Z" transform="translate(-407.645 -87.3)" fill="#0e9bff"/><rect width="54.792" height="75.705" transform="translate(32.333 14.658)" fill="#e0e0e0"/><g transform="translate(33.26 15.938)" opacity="0.5"><rect width="52.94" height="73.146" fill="url(#d)"/></g><rect width="51.592" height="71.53" transform="translate(33.933 16.477)" fill="#fff"/><rect width="25.594" height="6.2" transform="translate(47 13.375)" fill="url(#d)"/><path d="M641.9,118a3.665,3.665,0,1,0,3.578,3.664A3.622,3.622,0,0,0,641.9,118Zm0,5.777a2.114,2.114,0,1,1,2.064-2.114,2.089,2.089,0,0,1-2.064,2.1Z" transform="translate(-582.101 -110.677)" fill="url(#f)"/><rect width="25.055" height="5.927" transform="translate(47.269 13.109)" fill="#0e9bff"/><path d="M642.432,118a3.5,3.5,0,1,0,3.5,3.5A3.5,3.5,0,0,0,642.432,118Zm0,5.523a2.023,2.023,0,1,0,0-.006Z" transform="translate(-582.635 -110.677)" fill="#0e9bff"/><g transform="translate(0.814 92.409)" opacity="0.5"><rect width="0.471" height="2.674" transform="translate(1.101)" fill="#47e6b1"/><rect width="0.471" height="2.674" transform="translate(2.674 1.102) rotate(90)" fill="#47e6b1"/></g><g transform="translate(55.505)" opacity="0.5"><rect width="0.471" height="2.674" transform="translate(1.101)" fill="#47e6b1"/><rect width="0.471" height="2.674" transform="translate(2.674 1.101) rotate(90)" fill="#47e6b1"/></g><path d="M947.523,824.69a.578.578,0,0,1-.322-.7.282.282,0,0,0,.013-.064h0a.29.29,0,0,0-.52-.192h0a.272.272,0,0,0-.033.056.578.578,0,0,1-.7.322.279.279,0,0,0-.064-.013h0a.29.29,0,0,0-.192.52h0a.277.277,0,0,0,.056.033.578.578,0,0,1,.322.7.273.273,0,0,0-.012.064h0a.29.29,0,0,0,.52.192h0a.272.272,0,0,0,.033-.056.578.578,0,0,1,.7-.322.279.279,0,0,0,.064.013h0a.29.29,0,0,0,.192-.52h0A.274.274,0,0,0,947.523,824.69Z" transform="translate(-850.847 -727.829)" fill="#4d8af0" opacity="0.5"/><path d="M313.113,619.63a.578.578,0,0,1-.322-.7.279.279,0,0,0,.013-.064h0a.29.29,0,0,0-.52-.192h0a.28.28,0,0,0-.033.056.578.578,0,0,1-.7.322.269.269,0,0,0-.064-.013h0a.29.29,0,0,0-.192.52h0a.279.279,0,0,0,.056.033.578.578,0,0,1,.322.7.277.277,0,0,0-.013.064h0a.29.29,0,0,0,.52.192h0a.274.274,0,0,0,.033-.056.578.578,0,0,1,.7-.322.278.278,0,0,0,.064.013h0a.29.29,0,0,0,.192-.52h0A.28.28,0,0,0,313.113,619.63Z" transform="translate(-295.978 -548.479)" fill="#fdd835" opacity="0.5"/><path d="M841.523,120.31a.578.578,0,0,1-.322-.7.285.285,0,0,0,.013-.064h0a.29.29,0,0,0-.52-.192h0a.274.274,0,0,0-.033.056.578.578,0,0,1-.7.322.28.28,0,0,0-.064-.013h0a.29.29,0,0,0-.192.52h0a.275.275,0,0,0,.056.033.578.578,0,0,1,.322.7.278.278,0,0,0-.012.064h0a.29.29,0,0,0,.52.192h0a.274.274,0,0,0,.033-.056.578.578,0,0,1,.7-.322.278.278,0,0,0,.064.013h0a.29.29,0,0,0,.192-.52h0A.275.275,0,0,0,841.523,120.31Z" transform="translate(-758.137 -111.762)" fill="#fdd835" opacity="0.5"/><circle cx="0.944" cy="0.944" r="0.944" transform="translate(100.942 38.483)" fill="#f55f44" opacity="0.5"/><circle cx="0.944" cy="0.944" r="0.944" transform="translate(27.984 92.668)" fill="#f55f44" opacity="0.5"/><circle cx="0.944" cy="0.944" r="0.944" transform="translate(91.247 58.889)" fill="#f55f44" opacity="0.5"/><circle cx="0.944" cy="0.944" r="0.944" transform="translate(9.981 11.136)" fill="#4d8af0" opacity="0.5"/><circle cx="0.944" cy="0.944" r="0.944" transform="translate(0 36.89)" fill="#47e6b1" opacity="0.5"/></g></svg>