<svg xmlns="http://www.w3.org/2000/svg" width="19.708" height="22.342" viewBox="0 0 19.708 22.342"><g transform="translate(0.255 0.25)"><path d="M22.41,17.986a8.877,8.877,0,0,1-2.789-6.47V7.945A5.779,5.779,0,0,0,16.234,2.7a7.984,7.984,0,0,0-1.388-.483V1.986a1.986,1.986,0,0,0-3.971,0v.263A7.863,7.863,0,0,0,9.625,2.7,6.008,6.008,0,0,0,6.109,7.943v3.574a8.811,8.811,0,0,1-2.663,6.47.4.4,0,0,0,.212.673l3.769.651c.7.121,1.349.22,1.964.3a3.926,3.926,0,0,0,7.082,0c.613-.081,1.256-.18,1.954-.3l3.769-.651a.4.4,0,0,0,.213-.673Zm-10.741-16a1.191,1.191,0,1,1,2.383,0v.072a7.9,7.9,0,0,0-2.383.019Zm1.264,19.062a3.183,3.183,0,0,1-2.548-1.316,24.6,24.6,0,0,0,2.544.137,24.462,24.462,0,0,0,2.554-.139A3.184,3.184,0,0,1,12.933,21.048Zm5.36-2.521c-.762.131-1.461.238-2.121.322h0c-.291.037-.573.069-.85.1h-.009c-.253.025-.5.046-.745.064l-.139.01c-.212.014-.422.025-.63.033l-.129.005c-.494.017-.981.017-1.475,0l-.132-.006q-.309-.012-.622-.033l-.148-.01c-.238-.017-.479-.037-.726-.062l-.025,0c-.275-.027-.556-.06-.844-.1h0c-.662-.084-1.363-.191-2.129-.323L4.52,18A9.558,9.558,0,0,0,6.9,11.517V7.945A5.2,5.2,0,0,1,9.957,3.421a7.1,7.1,0,0,1,1.389-.47h.012a7.22,7.22,0,0,1,3.01-.027c.005,0,.01,0,.015,0a7.182,7.182,0,0,1,1.519.5,5.041,5.041,0,0,1,2.923,4.524v3.574A9.663,9.663,0,0,0,21.334,18Z" transform="translate(-3.329)" fill="#fff" stroke="#fff" stroke-width="0.5"/></g></svg>