<svg xmlns="http://www.w3.org/2000/svg" width="33.519" height="23.064" viewBox="0 0 33.519 23.064"><g transform="translate(-13 -25.26)"><g transform="translate(13 25.26)"><path d="M34.465,42.667a.8.8,0,0,1-.8-.8,9.3,9.3,0,0,0-18.608,0,.8.8,0,1,1-1.607,0,10.911,10.911,0,0,1,21.821,0A.8.8,0,0,1,34.465,42.667Z" transform="translate(-6.245 -19.602)" fill="#483df6"/><path d="M28.33,22.418a6.329,6.329,0,1,1,6.329-6.329A6.336,6.336,0,0,1,28.33,22.418Zm0-11.051a4.722,4.722,0,1,0,4.722,4.722A4.727,4.727,0,0,0,28.33,11.367Z" transform="translate(-10.218 -9.76)" fill="#483df6"/><path d="M6.987,39.94H.8a.8.8,0,0,1-.8-.8,8.9,8.9,0,0,1,9.118-9.08,9.248,9.248,0,0,1,4.664,1.314.8.8,0,1,1-.8,1.391,7.658,7.658,0,0,0-3.859-1.1,7.309,7.309,0,0,0-7.472,6.67H6.987a.8.8,0,1,1,0,1.607Z" transform="translate(0 -19.186)" fill="#483df6"/><path d="M12.439,23.5a5.37,5.37,0,1,1,3.8-9.167A.8.8,0,0,1,15.1,15.469a3.763,3.763,0,1,0,.434,4.8.8.8,0,0,1,1.32.915A5.377,5.377,0,0,1,12.439,23.5Z" transform="translate(-3.283 -11.153)" fill="#483df6"/><path d="M52.87,32.091H48.565a.8.8,0,0,1,0-1.607h3.458a7.526,7.526,0,0,0-6.742-6.591.8.8,0,0,1-.073-1.586,3.709,3.709,0,0,0,3.043-3.636A4.138,4.138,0,0,0,44.2,14.763a.8.8,0,0,1,0-1.607,5.733,5.733,0,0,1,5.656,5.515A5.243,5.243,0,0,1,47.8,22.858a9.042,9.042,0,0,1,5.875,8.43A.8.8,0,0,1,52.87,32.091Z" transform="translate(-20.155 -11.337)" fill="#483df6"/></g></g></svg>