<svg xmlns="http://www.w3.org/2000/svg" width="35.973" height="35.971" viewBox="0 0 35.973 35.971"><g transform="translate(0 -0.015)"><g transform="translate(10.92 8.127)"><path d="M161.259,118.035h-1.867v-1.867a.7.7,0,0,0-1.405,0v1.867h-1.867a.7.7,0,1,0,0,1.405h1.867v1.867a.7.7,0,0,0,1.405,0v-1.867h1.867a.7.7,0,0,0,0-1.405Z" transform="translate(-155.418 -115.466)" fill="#fff"/></g><g transform="translate(8.009 5.216)"><path d="M120.174,74.042a6.182,6.182,0,1,0,6.182,6.182A6.19,6.19,0,0,0,120.174,74.042Zm0,10.96a4.777,4.777,0,1,1,4.777-4.777A4.783,4.783,0,0,1,120.174,85Z" transform="translate(-113.992 -74.042)" fill="#fff"/></g><g transform="translate(0 0.015)"><path d="M28.177,6.474,21.925.221a.7.7,0,0,0-.5-.206H2.108A2.11,2.11,0,0,0,0,2.123V33.878a2.11,2.11,0,0,0,2.108,2.108h13.42a.7.7,0,0,0,0-1.405H2.108a.7.7,0,0,1-.7-.7V2.123a.7.7,0,0,1,.7-.7H20.725V5.565a2.11,2.11,0,0,0,2.108,2.108h4.145V20.178a.7.7,0,0,0,1.405,0V6.97A.7.7,0,0,0,28.177,6.474Zm-5.344-.206a.7.7,0,0,1-.7-.7V2.414l3.854,3.854H22.833Z" transform="translate(0 -0.015)" fill="#fff"/></g><g transform="translate(10.281 19.686)"><path d="M159.228,280h-12.2a.7.7,0,0,0,0,1.405h12.2a.7.7,0,1,0,0-1.405Z" transform="translate(-146.324 -279.998)" fill="#fff"/></g><g transform="translate(4.496 19.686)"><path d="M66.988,280H64.7a.7.7,0,0,0,0,1.405h2.289a.7.7,0,0,0,0-1.405Z" transform="translate(-63.996 -279.998)" fill="#fff"/></g><g transform="translate(10.281 23.621)"><path d="M154.029,335.994h-7a.7.7,0,0,0,0,1.405h7a.7.7,0,1,0,0-1.405Z" transform="translate(-146.324 -335.994)" fill="#fff"/></g><g transform="translate(4.496 23.621)"><path d="M66.988,335.994H64.7a.7.7,0,1,0,0,1.405h2.289a.7.7,0,1,0,0-1.405Z" transform="translate(-63.996 -335.994)" fill="#fff"/></g><g transform="translate(10.28 27.555)"><path d="M147.519,392.2a.7.7,0,1,0,.206.5A.706.706,0,0,0,147.519,392.2Z" transform="translate(-146.32 -391.991)" fill="#fff"/></g><g transform="translate(4.496 27.555)"><path d="M66.988,391.991H64.7a.7.7,0,0,0,0,1.405h2.289a.7.7,0,0,0,0-1.405Z" transform="translate(-63.996 -391.991)" fill="#fff"/></g><g transform="translate(16.919 21.71)"><path d="M255.5,314.365a4.371,4.371,0,0,0-.607.043,4.355,4.355,0,0,0-7.251-4.331l-5.564,5.564a4.356,4.356,0,0,0,6.16,6.16l2.911-2.911a4.355,4.355,0,1,0,4.352-4.525Zm-8.256,6.442a2.951,2.951,0,1,1-4.173-4.173l2.285-2.285,4.173,4.173Zm3.279-3.279-4.173-4.173,2.285-2.285a2.951,2.951,0,1,1,4.173,4.173Zm4.275,4.058a2.95,2.95,0,0,1,0-5.731Zm1.405,0v-5.731a2.95,2.95,0,0,1,0,5.731Z" transform="translate(-240.802 -308.801)" fill="#fff"/></g></g></svg>