<svg xmlns="http://www.w3.org/2000/svg" width="17.383" height="17.637" viewBox="0 0 17.383 17.637"><g transform="translate(0.161 0.156)"><path d="M105.932,46.624a7.816,7.816,0,0,1-1.745-3.608l-.539-2.787a5.31,5.31,0,0,0-4.314-4.217l-.066-.341a1.873,1.873,0,1,0-3.679.711l.066.342a5.311,5.311,0,0,0-2.429,5.52l.455,2.349a7.767,7.767,0,0,1-.568,4.732l-.035.076a.313.313,0,0,0,.343.436l4.9-.95a1.561,1.561,0,0,0,3.064-.592l4.6-.889a.312.312,0,0,0,.177-.51Zm-5.895,2.888a.939.939,0,0,1-1.1-.742l1.839-.355a.939.939,0,0,1-.742,1.1ZM96.2,36.264a1.249,1.249,0,1,1,2.453-.475l.029.152a5.119,5.119,0,0,0-2.453.475Zm4.763,11.478-2.452.474-4.634.9a8.381,8.381,0,0,0,.413-4.638l-.455-2.349a4.691,4.691,0,0,1,3.71-5.487,4.764,4.764,0,0,1,.9-.086,4.685,4.685,0,0,1,4.589,3.8l.539,2.787a8.445,8.445,0,0,0,1.771,3.761Zm0,0" transform="translate(-89.423 -32.823)" fill="#0e9bff" stroke="#0e9bff" stroke-width="0.3"/><path d="M323.856,35.735A3.121,3.121,0,0,0,320.8,32c-.053,0-.1,0-.156.007l-.038,0,.039.624.041,0c.038,0,.076-.005.114-.005a2.5,2.5,0,0,1,2.449,2.987Zm0,0" transform="translate(-308.093 -30.755)" fill="#0e9bff" stroke="#0e9bff" stroke-width="0.3"/><path d="M318.865,0c-.072,0-.143,0-.214.009l-.059,0,.039.624.062,0c.056,0,.113-.008.17-.008a3.746,3.746,0,0,1,3.673,4.48l.613.122a4.42,4.42,0,0,0,.085-.857,4.375,4.375,0,0,0-4.373-4.373Zm0,0" transform="translate(-306.163)" fill="#0e9bff" stroke="#0e9bff" stroke-width="0.3"/><path d="M324.512,66.24A1.867,1.867,0,0,0,322.676,64a.892.892,0,0,0-.117.01l.041.624a.5.5,0,0,0,.076-.009,1.245,1.245,0,0,1,1.224,1.493Zm0,0" transform="translate(-309.973 -61.506)" fill="#0e9bff" stroke="#0e9bff" stroke-width="0.3"/><path d="M34.424,67.492c.037-.012.074-.021.111-.031l.038-.01-.159-.6-.035.01a1.556,1.556,0,0,0-.153.046,3.126,3.126,0,0,0-1.969,3.951,3.161,3.161,0,0,0,.251.56l.542-.309a2.542,2.542,0,0,1-.2-.45,2.5,2.5,0,0,1,1.576-3.162Zm0,0" transform="translate(-30.845 -64.242)" fill="#0e9bff" stroke="#0e9bff" stroke-width="0.3"/><path d="M1.082,38.508a3.721,3.721,0,0,1,2.164-1.881c.056-.019.113-.034.17-.048l.055-.014-.16-.6-.052.014c-.071.018-.141.037-.211.06A4.373,4.373,0,0,0,.29,41.567a4.418,4.418,0,0,0,.353.786l.542-.31a3.791,3.791,0,0,1-.3-.674,3.724,3.724,0,0,1,.2-2.86Zm0,0" transform="translate(-0.062 -34.561)" fill="#0e9bff" stroke="#0e9bff" stroke-width="0.3"/><path d="M65.594,98.552c.021,0,.043-.008.064-.014l-.179-.6a.723.723,0,0,0-.1.024,1.871,1.871,0,0,0-1.03,2.707l.541-.309a1.243,1.243,0,0,1,.7-1.808Zm0,0" transform="translate(-61.605 -94.119)" fill="#0e9bff" stroke="#0e9bff" stroke-width="0.3"/><path d="M145.311,318.4l-.612.123.091.455a2.388,2.388,0,0,1-.357,1.806l.519.347a3.006,3.006,0,0,0,.45-2.274Zm0,0" transform="translate(-138.799 -305.978)" fill="#0e9bff" stroke="#0e9bff" stroke-width="0.3"/></g></svg>