<svg xmlns="http://www.w3.org/2000/svg" width="29.5" height="35.962" viewBox="0 0 29.5 35.962"><g transform="translate(0)"><path d="M27.393,0h-14a.7.7,0,0,0,0,1.4h14a.7.7,0,0,1,.7.7V27.845a.7.7,0,0,1-.7.7H24.987V12.918c0-.008,0-.015,0-.023s0-.017,0-.025a.676.676,0,0,0-.011-.086v0a.715.715,0,0,0-.025-.09l-.006-.017a.671.671,0,0,0-.035-.08l0-.006a.679.679,0,0,0-.049-.078l-.013-.017a.737.737,0,0,0-.061-.07h0L18.575,6.216h0a.717.717,0,0,0-.473-.2H6.369v-3.9a.7.7,0,0,1,.7-.7H8.549a.7.7,0,1,0,0-1.4H7.072A2.109,2.109,0,0,0,4.965,2.107v3.9H2.107A2.109,2.109,0,0,0,0,8.117V33.855a2.109,2.109,0,0,0,2.107,2.107H22.88a2.109,2.109,0,0,0,2.107-2.107v-3.9h2.405A2.109,2.109,0,0,0,29.5,27.845V2.107A2.109,2.109,0,0,0,27.393,0ZM18.781,8.408l3.808,3.808H19.484a.7.7,0,0,1-.7-.7Zm4.8,25.447a.7.7,0,0,1-.7.7H2.107a.7.7,0,0,1-.7-.7V8.117a.7.7,0,0,1,.7-.7H17.377v4.1a2.11,2.11,0,0,0,2.107,2.107h4.1Zm0,0" fill="#fff"/><path d="M141.151,1.4h.019a.7.7,0,0,0,0-1.4h-.019a.7.7,0,0,0,0,1.4Zm0,0" transform="translate(-130.584)" fill="#fff"/><path d="M236.469,462h-.017a.7.7,0,0,0,0,1.4h.017a.7.7,0,0,0,0-1.4Zm0,0" transform="translate(-219.191 -429.55)" fill="#fff"/><path d="M268.3,462h-2.882a.7.7,0,1,0,0,1.4H268.3a.7.7,0,0,0,0-1.4Zm0,0" transform="translate(-246.126 -429.546)" fill="#fff"/><path d="M39.835,147.822h1.1v1.1a1.153,1.153,0,0,0,1.152,1.152h1.349a1.153,1.153,0,0,0,1.152-1.152v-1.1h1.1a1.153,1.153,0,0,0,1.152-1.152v-1.349a1.153,1.153,0,0,0-1.152-1.152h-1.1v-1.1a1.153,1.153,0,0,0-1.152-1.152H42.083a1.153,1.153,0,0,0-1.152,1.152v1.1h-1.1a1.153,1.153,0,0,0-1.152,1.152v1.349A1.153,1.153,0,0,0,39.835,147.822Zm.253-2.248h1.545a.7.7,0,0,0,.7-.7v-1.545h.843v1.545a.7.7,0,0,0,.7.7h1.545v.843H43.881a.7.7,0,0,0-.7.7v1.545h-.843V147.12a.7.7,0,0,0-.7-.7H40.088Zm0,0" transform="translate(-35.967 -131.954)" fill="#fff"/><path d="M39.386,287.835h6.743a.7.7,0,0,0,0-1.4H39.386a.7.7,0,0,0,0,1.4Zm0,0" transform="translate(-35.967 -266.312)" fill="#fff"/><path d="M39.386,327.839H57.535a.7.7,0,1,0,0-1.4H39.386a.7.7,0,1,0,0,1.4Zm0,0" transform="translate(-35.967 -303.506)" fill="#fff"/><path d="M39.386,367.839H57.535a.7.7,0,1,0,0-1.4H39.386a.7.7,0,1,0,0,1.4Zm0,0" transform="translate(-35.967 -340.696)" fill="#fff"/><path d="M46.129,406.434H39.386a.7.7,0,1,0,0,1.4h6.743a.7.7,0,1,0,0-1.4Zm0,0" transform="translate(-35.967 -377.887)" fill="#fff"/></g></svg>