<svg xmlns="http://www.w3.org/2000/svg" width="23.315" height="24" viewBox="0 0 23.315 24"><g transform="translate(-6.85)"><g transform="translate(6.85)"><path d="M176.247,11.7V.675a.675.675,0,1,0-1.349,0V11.7a3.426,3.426,0,0,0,0,6.716V23.32a.675.675,0,1,0,1.349,0V18.413a3.426,3.426,0,0,0,0-6.716Zm-.675,5.432a2.074,2.074,0,1,1,2.074-2.074A2.075,2.075,0,0,1,175.573,17.129Z" transform="translate(-163.89 0)" fill="#483df6"/><path d="M10.947,6.041V.675A.675.675,0,1,0,9.6.675V6.041a3.426,3.426,0,0,0,0,6.716V23.32a.675.675,0,0,0,1.349,0V12.752a3.422,3.422,0,0,0,0-6.711Zm-.675,5.432A2.074,2.074,0,1,1,12.347,9.4,2.075,2.075,0,0,1,10.273,11.473Z" transform="translate(-6.85 0)" fill="#483df6"/><path d="M340.547,6.041V.675a.675.675,0,1,0-1.349,0V6.041a3.426,3.426,0,0,0,0,6.716V23.325a.675.675,0,1,0,1.349,0V12.752a3.422,3.422,0,0,0,0-6.711Zm-.675,5.432A2.074,2.074,0,1,1,341.947,9.4,2.075,2.075,0,0,1,339.873,11.473Z" transform="translate(-319.98 0)" fill="#483df6"/></g></g></svg>