<svg xmlns="http://www.w3.org/2000/svg" width="26.711" height="22.342" viewBox="0 0 26.711 22.342"><g transform="translate(0.25 0.25)"><path d="M22.268,12.074A7.48,7.48,0,0,0,14.889,5,7.7,7.7,0,0,0,8.8,8.061c-.033-.017-.068-.029-.1-.045-.086-.042-.172-.081-.261-.116-.052-.021-.1-.039-.156-.057-.086-.03-.173-.057-.262-.081-.052-.014-.1-.028-.157-.041-.1-.022-.194-.038-.293-.053-.046-.007-.091-.016-.138-.021a3.849,3.849,0,0,0-.44-.027,3.936,3.936,0,0,0-3.932,3.932c0,.056,0,.111.007.166A6.04,6.04,0,0,0,0,16.862a5.618,5.618,0,0,0,5.611,5.612H7.863a.437.437,0,1,0,0-.874H5.611A4.743,4.743,0,0,1,.874,16.862a5.193,5.193,0,0,1,2.81-4.479l.248-.118v-.275c0-.054,0-.109.007-.164l0-.076-.005-.088c0-.036-.005-.073-.005-.109A3.037,3.037,0,0,1,7.39,8.524l.1.016a3.07,3.07,0,0,1,.345.077l.046.012a3.048,3.048,0,0,1,.365.14l.091.044a3.019,3.019,0,0,1,.308.174,3.057,3.057,0,0,1,1.4,2.566.437.437,0,0,0,.874,0,3.923,3.923,0,0,0-1.4-3,6.919,6.919,0,0,1,5.366-2.677,6.6,6.6,0,0,1,6.486,6.066,8.343,8.343,0,0,0-1.784.054.437.437,0,0,0,.065.869.429.429,0,0,0,.066-.005,8.054,8.054,0,0,1,2.046,0,4.478,4.478,0,0,1,3.567,4.362A4.386,4.386,0,0,1,20.956,21.6H19.221a.437.437,0,0,0,0,.874h1.735a5.26,5.26,0,0,0,5.254-5.254A5.376,5.376,0,0,0,22.268,12.074Z" transform="translate(0 -5)" fill="#fff" stroke="#fff" stroke-width="0.5"/><path d="M29.174,36.242a.437.437,0,0,0-.437.437,3.932,3.932,0,1,1-3.932-3.932A3.789,3.789,0,0,1,28,34.495H25.242a.437.437,0,1,0,0,.874h3.5a.455.455,0,0,0,.092-.018.471.471,0,0,0,.079-.017h0a.393.393,0,0,0,.038-.027.276.276,0,0,0,.145-.137.432.432,0,0,0,.046-.073.451.451,0,0,0,.024-.116.476.476,0,0,0,.01-.048v0h0V31.437a.437.437,0,0,0-.874,0v2.009a4.633,4.633,0,0,0-3.495-1.573,4.805,4.805,0,1,0,4.805,4.805A.437.437,0,0,0,29.174,36.242Z" transform="translate(-11.263 -19.642)" fill="#fff" stroke="#fff" stroke-width="0.5"/></g></svg>