<svg xmlns="http://www.w3.org/2000/svg" width="29.023" height="39.156" viewBox="0 0 29.023 39.156"><g transform="translate(-0.017 0)"><path d="M45.455,25.554a2.054,2.054,0,0,0,1.456-.6l.925-.925a2.062,2.062,0,0,0,2.716-.173l8.37-8.369.942.942a.629.629,0,0,0,.89,0l2.485-2.485a.629.629,0,0,0,0-.89l-.581-.581,5.09-5.09a4.328,4.328,0,0,0-6.121-6.121l-5.09,5.09-.581-.581a.629.629,0,0,0-.889,0L52.582,8.254a.629.629,0,0,0,0,.889l.942.943-8.369,8.37a2.062,2.062,0,0,0-.222,2.649L44,22.039a2.058,2.058,0,0,0,1.456,3.514ZM62.517,2.15a3.07,3.07,0,0,1,4.341,4.342l-5.09,5.09L57.428,7.24Zm-7,4.953L61.905,13.5l-1.6,1.6-.868-.869a.624.624,0,0,0-.156-.155L54.941,9.724a.628.628,0,0,0-.156-.156L53.917,8.7ZM44.889,22.929l1.358-1.358a.629.629,0,0,0,0-.889l-.2-.2a.8.8,0,0,1,0-1.133l8.369-8.37,3.619,3.619-8.369,8.37a.8.8,0,0,1-1.134,0l-.26-.26a.629.629,0,0,0-.889,0l-1.358,1.358a.8.8,0,1,1-1.134-1.133Zm0,0" transform="translate(-39.968 0)" fill="#fff"/><path d="M5.068,346.87A5.106,5.106,0,0,0,9.481,344.3a4.547,4.547,0,0,0,.02-4.607c-.01-.017-.021-.033-.032-.049l-3.891-5.414a.621.621,0,0,0-.511-.255h0a.621.621,0,0,0-.51.254l-3.891,5.4c-.012.016-.023.031-.033.048A4.57,4.57,0,0,0,.658,344.3a5.106,5.106,0,0,0,4.409,2.567Zm-3.362-6.536,3.361-4.671,3.363,4.686a3.261,3.261,0,0,1-.04,3.321,3.812,3.812,0,0,1-6.64,0,3.283,3.283,0,0,1-.044-3.341Zm0,0" transform="translate(0 -307.714)" fill="#fff"/><path d="M56.5,430.024a2.988,2.988,0,0,0,2.99-2.978.629.629,0,1,0-1.258,0,1.728,1.728,0,0,1-1.732,1.72.629.629,0,0,0,0,1.258Zm0,0" transform="translate(-51.466 -392.892)" fill="#fff"/></g></svg>